# xmcd
#
# Track frame offsets: 
#        150
#        4070
#        20511
#        23876
#        30625
#        38505
#        46787
#        56541
#        59062
#        65257
#        74679
#        77996
#        125342
#        130559
#        132129
#        133771
#        135684
#        148364
#        152236
#        155526
#        166415
#        177416
#        181199
#        185366
#        186382
#        193376
#        193826
#        198176
#        203789
#        211744
#        217974
#        219732
#        229250
#        232824
#        237729
#        265858
#        271089
#        274191
#        281749
#        291467
#        300249
#        315164
#        322760
#        328889
#        334456
#        340091
#        341897
#        348338
#
# Disc length: 4741 seconds
#
# Revision: 0
# Processed by: cddbd v1.5.2PL0 Copyright (c) Steve Scherf et al.
# Submitted via: ExactAudioCopy v0.95b4
#
DISCID=e9128330
DTITLE=The Beatles  - AB  Road - Complete Purple Chick Set v1.1 Jan.08
DTITLE=Various Artist - D3  FLAC
DYEAR=1900
DGENRE=
TTITLE0=I Me Mine 8.71
TTITLE1=I Me Mine 8.72
TTITLE2=How Do You Think I Feel 8.73
TTITLE3=The Ballad Of Bonnie And Clyde 8.74
TTITLE4=Hello Mudduh, Hello Fadduh! 8.75
TTITLE5=I Me Mine 8.76
TTITLE6=Fbi 8.77
TTITLE7=I'm Going To Knock Him Down Dead 8.78
TTITLE8=Unknown 8.79
TTITLE9=Oh! Darling 8.80
TTITLE10=I Me Mine 8.81
TTITLE11=Let It Be 8.82
TTITLE12=Unknown 8.83
TTITLE13=Unknown 8.84
TTITLE14=Unknown 8.85
TTITLE15=The Fool 8.86
TTITLE16=I Me Mine 8.87
TTITLE17=I Me Mine 8.88
TTITLE18=I Me Mine 8.89
TTITLE19=I Me Mine 8.90
TTITLE20=I Me Mine 8.91
TTITLE21=I Me Mine 8.92
TTITLE22=I Me Mine 8.93
TTITLE23=Roll and Dialogue
TTITLE24=I Me Mine 8.94
TTITLE25=I Me Mine 8.95
TTITLE26=I Me Mine 8.96
TTITLE27=I Me Mine 8.97
TTITLE28=I Me Mine - Domino 8.98
TTITLE29=I Me Mine 8.99
TTITLE30=I Me Mine 8.100
TTITLE31=I Me Mine 8.101
TTITLE32=The Long And Winding Road 8.102
TTITLE33=The Long And Winding Road 8.103
TTITLE34=The Long And Winding Road 8.104
TTITLE35=Adagio For Strings 8.105
TTITLE36=I Me Mine 8.106
TTITLE37=Tell All The Folks Back Home 8.107
TTITLE38=I Me Mine 8.108
TTITLE39=I Me Mine 8.109
TTITLE40=Improvisation 8.110
TTITLE41=True Love 8.111
TTITLE42=Unknown 8.112
TTITLE43=Shout! 8.113
TTITLE44=Sweet Little Sixteen 8.114
TTITLE45=Malagueña 8.115
TTITLE46=Almost Grown 8.116
TTITLE47=What Am I Living For 8.117
EXTD=
EXTT0=
EXTT1=
EXTT2=
EXTT3=
EXTT4=
EXTT5=
EXTT6=
EXTT7=
EXTT8=
EXTT9=
EXTT10=
EXTT11=
EXTT12=
EXTT13=
EXTT14=
EXTT15=
EXTT16=
EXTT17=
EXTT18=
EXTT19=
EXTT20=
EXTT21=
EXTT22=
EXTT23=
EXTT24=
EXTT25=
EXTT26=
EXTT27=
EXTT28=
EXTT29=
EXTT30=
EXTT31=
EXTT32=
EXTT33=
EXTT34=
EXTT35=
EXTT36=
EXTT37=
EXTT38=
EXTT39=
EXTT40=
EXTT41=
EXTT42=
EXTT43=
EXTT44=
EXTT45=
EXTT46=
EXTT47=
PLAYORDER=
